<mxfile host="Electron" agent="Mozilla/5.0 (Macintosh; Intel Mac OS X 10_15_7) AppleWebKit/537.36 (KHTML, like Gecko) draw.io/27.0.2 Chrome/134.0.6998.205 Electron/35.3.0 Safari/537.36" version="27.0.2">
  <diagram name="Page-1" id="BOcAg0KsB77efJwdoaL5">
    <mxGraphModel dx="2544" dy="1260" grid="0" gridSize="10" guides="1" tooltips="1" connect="1" arrows="1" fold="1" page="1" pageScale="1" pageWidth="850" pageHeight="1100" math="0" shadow="0">
      <root>
        <mxCell id="0" />
        <mxCell id="1" parent="0" />
        <mxCell id="EbdNjq6aExMKlVo5ueV2-1" value="patient" style="shape=umlLifeline;perimeter=lifelinePerimeter;whiteSpace=wrap;html=1;container=1;dropTarget=0;collapsible=0;recursiveResize=0;outlineConnect=0;portConstraint=eastwest;newEdgeStyle={&quot;curved&quot;:0,&quot;rounded&quot;:0};participant=umlActor;labelBackgroundColor=none;fillColor=#FAE5C7;strokeColor=#0F8B8D;fontColor=#143642;sketch=1;curveFitting=1;jiggle=2;" vertex="1" parent="1">
          <mxGeometry x="-107" y="60" width="20" height="1094" as="geometry" />
        </mxCell>
        <mxCell id="EbdNjq6aExMKlVo5ueV2-2" value="" style="html=1;points=[[0,0,0,0,5],[0,1,0,0,-5],[1,0,0,0,5],[1,1,0,0,-5]];perimeter=orthogonalPerimeter;outlineConnect=0;targetShapes=umlLifeline;portConstraint=eastwest;newEdgeStyle={&quot;curved&quot;:0,&quot;rounded&quot;:0};labelBackgroundColor=none;fillColor=#FAE5C7;strokeColor=#0F8B8D;fontColor=#143642;sketch=1;curveFitting=1;jiggle=2;" vertex="1" parent="EbdNjq6aExMKlVo5ueV2-1">
          <mxGeometry x="5" y="64" width="10" height="885" as="geometry" />
        </mxCell>
        <mxCell id="EbdNjq6aExMKlVo5ueV2-3" value="prescription page" style="shape=umlLifeline;perimeter=lifelinePerimeter;whiteSpace=wrap;html=1;container=1;dropTarget=0;collapsible=0;recursiveResize=0;outlineConnect=0;portConstraint=eastwest;newEdgeStyle={&quot;curved&quot;:0,&quot;rounded&quot;:0};labelBackgroundColor=none;fillColor=#FAE5C7;strokeColor=#0F8B8D;fontColor=#143642;sketch=1;curveFitting=1;jiggle=2;" vertex="1" parent="1">
          <mxGeometry x="59" y="60" width="100" height="543" as="geometry" />
        </mxCell>
        <mxCell id="EbdNjq6aExMKlVo5ueV2-4" value="" style="html=1;points=[[0,0,0,0,5],[0,1,0,0,-5],[1,0,0,0,5],[1,1,0,0,-5]];perimeter=orthogonalPerimeter;outlineConnect=0;targetShapes=umlLifeline;portConstraint=eastwest;newEdgeStyle={&quot;curved&quot;:0,&quot;rounded&quot;:0};strokeColor=#0F8B8D;fontColor=#143642;fillColor=#FAE5C7;sketch=1;curveFitting=1;jiggle=2;labelBackgroundColor=none;" vertex="1" parent="EbdNjq6aExMKlVo5ueV2-3">
          <mxGeometry x="45" y="76" width="10" height="177" as="geometry" />
        </mxCell>
        <mxCell id="EbdNjq6aExMKlVo5ueV2-5" value="auth" style="html=1;verticalAlign=bottom;startArrow=circle;startFill=1;endArrow=open;startSize=6;endSize=8;curved=0;rounded=0;entryX=0;entryY=0;entryDx=0;entryDy=5;entryPerimeter=0;labelBackgroundColor=none;strokeColor=#A8201A;fontColor=default;sketch=1;curveFitting=1;jiggle=2;" edge="1" parent="1">
          <mxGeometry width="80" relative="1" as="geometry">
            <mxPoint x="-212" y="129" as="sourcePoint" />
            <mxPoint x="-102" y="129" as="targetPoint" />
          </mxGeometry>
        </mxCell>
        <mxCell id="EbdNjq6aExMKlVo5ueV2-6" style="edgeStyle=orthogonalEdgeStyle;rounded=0;orthogonalLoop=1;jettySize=auto;html=1;curved=0;exitX=1;exitY=0;exitDx=0;exitDy=5;exitPerimeter=0;entryX=0;entryY=0;entryDx=0;entryDy=5;entryPerimeter=0;labelBackgroundColor=none;strokeColor=#A8201A;fontColor=default;sketch=1;curveFitting=1;jiggle=2;" edge="1" parent="1">
          <mxGeometry relative="1" as="geometry">
            <mxPoint x="-92" y="145" as="sourcePoint" />
            <mxPoint x="104" y="145" as="targetPoint" />
          </mxGeometry>
        </mxCell>
        <mxCell id="EbdNjq6aExMKlVo5ueV2-7" value="view&amp;nbsp;&lt;span style=&quot;text-wrap-mode: wrap;&quot;&gt;prescription&lt;/span&gt;&amp;nbsp;page" style="text;html=1;align=center;verticalAlign=middle;resizable=0;points=[];autosize=1;strokeColor=none;fillColor=none;labelBackgroundColor=none;fontColor=#143642;sketch=1;curveFitting=1;jiggle=2;" vertex="1" parent="1">
          <mxGeometry x="-66" y="121" width="137" height="26" as="geometry" />
        </mxCell>
        <mxCell id="EbdNjq6aExMKlVo5ueV2-8" value="database" style="shape=umlLifeline;perimeter=lifelinePerimeter;whiteSpace=wrap;html=1;container=1;dropTarget=0;collapsible=0;recursiveResize=0;outlineConnect=0;portConstraint=eastwest;newEdgeStyle={&quot;curved&quot;:0,&quot;rounded&quot;:0};strokeColor=#0F8B8D;fontColor=#143642;fillColor=#FAE5C7;sketch=1;curveFitting=1;jiggle=2;labelBackgroundColor=none;" vertex="1" parent="1">
          <mxGeometry x="457" y="60" width="100" height="1156" as="geometry" />
        </mxCell>
        <mxCell id="EbdNjq6aExMKlVo5ueV2-9" value="" style="html=1;points=[[0,0,0,0,5],[0,1,0,0,-5],[1,0,0,0,5],[1,1,0,0,-5]];perimeter=orthogonalPerimeter;outlineConnect=0;targetShapes=umlLifeline;portConstraint=eastwest;newEdgeStyle={&quot;curved&quot;:0,&quot;rounded&quot;:0};strokeColor=#0F8B8D;fontColor=#143642;fillColor=#FAE5C7;sketch=1;curveFitting=1;jiggle=2;labelBackgroundColor=none;" vertex="1" parent="EbdNjq6aExMKlVo5ueV2-8">
          <mxGeometry x="45" y="87" width="10" height="80" as="geometry" />
        </mxCell>
        <mxCell id="EbdNjq6aExMKlVo5ueV2-10" value="" style="html=1;points=[[0,0,0,0,5],[0,1,0,0,-5],[1,0,0,0,5],[1,1,0,0,-5]];perimeter=orthogonalPerimeter;outlineConnect=0;targetShapes=umlLifeline;portConstraint=eastwest;newEdgeStyle={&quot;curved&quot;:0,&quot;rounded&quot;:0};strokeColor=#0F8B8D;fontColor=#143642;fillColor=#FAE5C7;sketch=1;curveFitting=1;jiggle=2;labelBackgroundColor=none;" vertex="1" parent="EbdNjq6aExMKlVo5ueV2-8">
          <mxGeometry x="45" y="240" width="10" height="80" as="geometry" />
        </mxCell>
        <mxCell id="EbdNjq6aExMKlVo5ueV2-11" value="" style="html=1;points=[[0,0,0,0,5],[0,1,0,0,-5],[1,0,0,0,5],[1,1,0,0,-5]];perimeter=orthogonalPerimeter;outlineConnect=0;targetShapes=umlLifeline;portConstraint=eastwest;newEdgeStyle={&quot;curved&quot;:0,&quot;rounded&quot;:0};sketch=1;hachureGap=4;jiggle=2;curveFitting=1;strokeColor=#0F8B8D;fontFamily=Architects Daughter;fontSource=https%3A%2F%2Ffonts.googleapis.com%2Fcss%3Ffamily%3DArchitects%2BDaughter;fontColor=#143642;fillColor=#FAE5C7;" vertex="1" parent="EbdNjq6aExMKlVo5ueV2-8">
          <mxGeometry x="45" y="574" width="10" height="80" as="geometry" />
        </mxCell>
        <mxCell id="EbdNjq6aExMKlVo5ueV2-103" value="" style="html=1;points=[[0,0,0,0,5],[0,1,0,0,-5],[1,0,0,0,5],[1,1,0,0,-5]];perimeter=orthogonalPerimeter;outlineConnect=0;targetShapes=umlLifeline;portConstraint=eastwest;newEdgeStyle={&quot;curved&quot;:0,&quot;rounded&quot;:0};sketch=1;hachureGap=4;jiggle=2;curveFitting=1;strokeColor=#0F8B8D;fontFamily=Architects Daughter;fontSource=https%3A%2F%2Ffonts.googleapis.com%2Fcss%3Ffamily%3DArchitects%2BDaughter;fontColor=#143642;fillColor=#FAE5C7;" vertex="1" parent="EbdNjq6aExMKlVo5ueV2-8">
          <mxGeometry x="45" y="790" width="10" height="59" as="geometry" />
        </mxCell>
        <mxCell id="EbdNjq6aExMKlVo5ueV2-14" style="edgeStyle=orthogonalEdgeStyle;rounded=0;orthogonalLoop=1;jettySize=auto;html=1;curved=0;exitX=1;exitY=0;exitDx=0;exitDy=5;exitPerimeter=0;strokeColor=#A8201A;fontColor=default;fillColor=#FAE5C7;sketch=1;curveFitting=1;jiggle=2;labelBackgroundColor=none;" edge="1" parent="1" target="EbdNjq6aExMKlVo5ueV2-9">
          <mxGeometry relative="1" as="geometry">
            <mxPoint x="333" y="156" as="sourcePoint" />
            <mxPoint x="544" y="156" as="targetPoint" />
            <Array as="points">
              <mxPoint x="333" y="157" />
            </Array>
          </mxGeometry>
        </mxCell>
        <mxCell id="EbdNjq6aExMKlVo5ueV2-15" value="request where&amp;nbsp;&lt;span style=&quot;text-wrap-mode: wrap;&quot;&gt;prescriptions&lt;/span&gt;" style="text;html=1;align=center;verticalAlign=middle;resizable=0;points=[];autosize=1;strokeColor=none;fillColor=none;fontColor=#143642;sketch=1;curveFitting=1;jiggle=2;labelBackgroundColor=none;" vertex="1" parent="1">
          <mxGeometry x="337" y="133" width="165" height="26" as="geometry" />
        </mxCell>
        <mxCell id="EbdNjq6aExMKlVo5ueV2-16" style="edgeStyle=orthogonalEdgeStyle;rounded=0;orthogonalLoop=1;jettySize=auto;html=1;curved=0;exitX=0;exitY=0.763;exitDx=0;exitDy=0;exitPerimeter=0;entryX=1;entryY=1;entryDx=0;entryDy=-5;entryPerimeter=0;strokeColor=#A8201A;fontColor=default;fillColor=#FAE5C7;dashed=1;dashPattern=8 8;sketch=1;curveFitting=1;jiggle=2;labelBackgroundColor=none;" edge="1" parent="1">
          <mxGeometry relative="1" as="geometry">
            <mxPoint x="502" y="184.03999999999996" as="sourcePoint" />
            <mxPoint x="333" y="183" as="targetPoint" />
          </mxGeometry>
        </mxCell>
        <mxCell id="EbdNjq6aExMKlVo5ueV2-17" value="response" style="text;html=1;align=center;verticalAlign=middle;resizable=0;points=[];autosize=1;strokeColor=none;fillColor=none;fontColor=#143642;sketch=1;curveFitting=1;jiggle=2;labelBackgroundColor=none;" vertex="1" parent="1">
          <mxGeometry x="388" y="164" width="67" height="26" as="geometry" />
        </mxCell>
        <mxCell id="EbdNjq6aExMKlVo5ueV2-18" value="prescription&amp;nbsp;controller" style="shape=umlLifeline;perimeter=lifelinePerimeter;whiteSpace=wrap;html=1;container=1;dropTarget=0;collapsible=0;recursiveResize=0;outlineConnect=0;portConstraint=eastwest;newEdgeStyle={&quot;curved&quot;:0,&quot;rounded&quot;:0};strokeColor=#0F8B8D;fontColor=#143642;fillColor=#FAE5C7;sketch=1;curveFitting=1;jiggle=2;labelBackgroundColor=none;" vertex="1" parent="1">
          <mxGeometry x="281" y="60" width="100" height="470" as="geometry" />
        </mxCell>
        <mxCell id="EbdNjq6aExMKlVo5ueV2-19" value="" style="html=1;points=[[0,0,0,0,5],[0,1,0,0,-5],[1,0,0,0,5],[1,1,0,0,-5]];perimeter=orthogonalPerimeter;outlineConnect=0;targetShapes=umlLifeline;portConstraint=eastwest;newEdgeStyle={&quot;curved&quot;:0,&quot;rounded&quot;:0};strokeColor=#0F8B8D;fontColor=#143642;fillColor=#FAE5C7;sketch=1;curveFitting=1;jiggle=2;labelBackgroundColor=none;" vertex="1" parent="EbdNjq6aExMKlVo5ueV2-18">
          <mxGeometry x="45" y="87" width="10" height="313" as="geometry" />
        </mxCell>
        <mxCell id="EbdNjq6aExMKlVo5ueV2-20" style="edgeStyle=orthogonalEdgeStyle;rounded=0;orthogonalLoop=1;jettySize=auto;html=1;curved=0;exitX=1;exitY=0;exitDx=0;exitDy=5;exitPerimeter=0;entryX=0;entryY=0;entryDx=0;entryDy=5;entryPerimeter=0;strokeColor=#A8201A;fontColor=default;fillColor=#FAE5C7;sketch=1;curveFitting=1;jiggle=2;labelBackgroundColor=none;" edge="1" parent="1">
          <mxGeometry relative="1" as="geometry">
            <mxPoint x="114" y="152" as="sourcePoint" />
            <mxPoint x="326" y="152" as="targetPoint" />
          </mxGeometry>
        </mxCell>
        <mxCell id="EbdNjq6aExMKlVo5ueV2-21" value="request" style="text;html=1;align=center;verticalAlign=middle;resizable=0;points=[];autosize=1;strokeColor=none;fillColor=none;fontColor=#143642;sketch=1;curveFitting=1;jiggle=2;labelBackgroundColor=none;" vertex="1" parent="1">
          <mxGeometry x="189" y="128" width="58" height="26" as="geometry" />
        </mxCell>
        <mxCell id="EbdNjq6aExMKlVo5ueV2-22" style="edgeStyle=orthogonalEdgeStyle;rounded=0;orthogonalLoop=1;jettySize=auto;html=1;curved=0;exitX=0;exitY=1;exitDx=0;exitDy=-5;exitPerimeter=0;entryX=1;entryY=1;entryDx=0;entryDy=-5;entryPerimeter=0;strokeColor=#A8201A;fontColor=default;fillColor=#FAE5C7;dashed=1;dashPattern=8 8;sketch=1;curveFitting=1;jiggle=2;labelBackgroundColor=none;" edge="1" parent="1">
          <mxGeometry relative="1" as="geometry">
            <mxPoint x="326" y="202" as="sourcePoint" />
            <mxPoint x="114" y="202" as="targetPoint" />
            <Array as="points">
              <mxPoint x="114" y="202" />
            </Array>
          </mxGeometry>
        </mxCell>
        <mxCell id="EbdNjq6aExMKlVo5ueV2-23" value="response" style="text;html=1;align=center;verticalAlign=middle;resizable=0;points=[];autosize=1;strokeColor=none;fillColor=none;fontColor=#143642;sketch=1;curveFitting=1;jiggle=2;labelBackgroundColor=none;" vertex="1" parent="1">
          <mxGeometry x="183" y="176" width="67" height="26" as="geometry" />
        </mxCell>
        <mxCell id="EbdNjq6aExMKlVo5ueV2-24" style="edgeStyle=orthogonalEdgeStyle;rounded=0;orthogonalLoop=1;jettySize=auto;html=1;curved=0;exitX=1;exitY=1;exitDx=0;exitDy=-5;exitPerimeter=0;entryX=0;entryY=1;entryDx=0;entryDy=-5;entryPerimeter=0;strokeColor=#A8201A;fontColor=default;fillColor=#FAE5C7;sketch=1;curveFitting=1;jiggle=2;labelBackgroundColor=none;dashed=1;dashPattern=8 8;" edge="1" parent="1">
          <mxGeometry relative="1" as="geometry">
            <mxPoint x="104" y="229" as="sourcePoint" />
            <mxPoint x="-92" y="229" as="targetPoint" />
          </mxGeometry>
        </mxCell>
        <mxCell id="EbdNjq6aExMKlVo5ueV2-25" value="show&amp;nbsp;&lt;span style=&quot;text-wrap-mode: wrap;&quot;&gt;prescription&lt;/span&gt;&lt;span style=&quot;text-wrap-mode: wrap;&quot;&gt;&amp;nbsp;list&lt;/span&gt;" style="text;html=1;align=center;verticalAlign=middle;resizable=0;points=[];autosize=1;strokeColor=none;fillColor=none;fontColor=#143642;sketch=1;curveFitting=1;jiggle=2;labelBackgroundColor=none;" vertex="1" parent="1">
          <mxGeometry x="-58" y="206" width="129" height="26" as="geometry" />
        </mxCell>
        <mxCell id="EbdNjq6aExMKlVo5ueV2-26" style="edgeStyle=orthogonalEdgeStyle;rounded=0;orthogonalLoop=1;jettySize=auto;html=1;curved=0;exitX=1;exitY=1;exitDx=0;exitDy=-5;exitPerimeter=0;entryX=0;entryY=1;entryDx=0;entryDy=-5;entryPerimeter=0;strokeColor=#A8201A;fontColor=default;fillColor=#FAE5C7;sketch=1;curveFitting=1;jiggle=2;labelBackgroundColor=none;" edge="1" parent="1">
          <mxGeometry relative="1" as="geometry">
            <mxPoint x="-92" y="267" as="sourcePoint" />
            <mxPoint x="104" y="267" as="targetPoint" />
          </mxGeometry>
        </mxCell>
        <mxCell id="EbdNjq6aExMKlVo5ueV2-27" value="select a&amp;nbsp;&lt;span style=&quot;text-wrap-mode: wrap;&quot;&gt;prescription&lt;/span&gt;" style="text;html=1;align=center;verticalAlign=middle;resizable=0;points=[];autosize=1;strokeColor=none;fillColor=none;fontColor=#143642;sketch=1;curveFitting=1;jiggle=2;labelBackgroundColor=none;" vertex="1" parent="1">
          <mxGeometry x="-59" y="244" width="125" height="26" as="geometry" />
        </mxCell>
        <mxCell id="EbdNjq6aExMKlVo5ueV2-28" style="edgeStyle=orthogonalEdgeStyle;rounded=0;orthogonalLoop=1;jettySize=auto;html=1;curved=0;strokeColor=#A8201A;fontColor=default;fillColor=#FAE5C7;sketch=1;curveFitting=1;jiggle=2;labelBackgroundColor=none;" edge="1" parent="1" source="EbdNjq6aExMKlVo5ueV2-4">
          <mxGeometry relative="1" as="geometry">
            <mxPoint x="328" y="291" as="targetPoint" />
            <Array as="points">
              <mxPoint x="326" y="289" />
              <mxPoint x="326" y="291" />
            </Array>
          </mxGeometry>
        </mxCell>
        <mxCell id="EbdNjq6aExMKlVo5ueV2-29" value="get item&amp;nbsp;&lt;span style=&quot;text-wrap-mode: wrap;&quot;&gt;prescription and order&lt;/span&gt;" style="text;html=1;align=center;verticalAlign=middle;resizable=0;points=[];autosize=1;strokeColor=none;fillColor=none;fontColor=#143642;sketch=1;curveFitting=1;jiggle=2;labelBackgroundColor=none;" vertex="1" parent="1">
          <mxGeometry x="127" y="266" width="181" height="26" as="geometry" />
        </mxCell>
        <mxCell id="EbdNjq6aExMKlVo5ueV2-30" style="edgeStyle=orthogonalEdgeStyle;rounded=0;orthogonalLoop=1;jettySize=auto;html=1;curved=0;exitX=1;exitY=1;exitDx=0;exitDy=-5;exitPerimeter=0;entryX=0;entryY=1;entryDx=0;entryDy=-5;entryPerimeter=0;strokeColor=#A8201A;fontColor=default;fillColor=#FAE5C7;sketch=1;curveFitting=1;jiggle=2;labelBackgroundColor=none;" edge="1" parent="1">
          <mxGeometry relative="1" as="geometry">
            <mxPoint x="336" y="308" as="sourcePoint" />
            <mxPoint x="502" y="308" as="targetPoint" />
          </mxGeometry>
        </mxCell>
        <mxCell id="EbdNjq6aExMKlVo5ueV2-31" value="request where items" style="text;html=1;align=center;verticalAlign=middle;resizable=0;points=[];autosize=1;strokeColor=none;fillColor=none;fontColor=#143642;sketch=1;curveFitting=1;jiggle=2;labelBackgroundColor=none;" vertex="1" parent="1">
          <mxGeometry x="354" y="285" width="126" height="26" as="geometry" />
        </mxCell>
        <mxCell id="EbdNjq6aExMKlVo5ueV2-32" style="edgeStyle=orthogonalEdgeStyle;rounded=0;orthogonalLoop=1;jettySize=auto;html=1;curved=0;exitX=0;exitY=1;exitDx=0;exitDy=-5;exitPerimeter=0;entryX=1;entryY=1;entryDx=0;entryDy=-5;entryPerimeter=0;strokeColor=#A8201A;fontColor=default;fillColor=#FAE5C7;dashed=1;dashPattern=8 8;sketch=1;curveFitting=1;jiggle=2;labelBackgroundColor=none;" edge="1" parent="1">
          <mxGeometry relative="1" as="geometry">
            <mxPoint x="502" y="343" as="sourcePoint" />
            <mxPoint x="336" y="343" as="targetPoint" />
          </mxGeometry>
        </mxCell>
        <mxCell id="EbdNjq6aExMKlVo5ueV2-33" value="response" style="text;html=1;align=center;verticalAlign=middle;resizable=0;points=[];autosize=1;strokeColor=none;fillColor=none;fontColor=#143642;sketch=1;curveFitting=1;jiggle=2;labelBackgroundColor=none;" vertex="1" parent="1">
          <mxGeometry x="384" y="322" width="67" height="26" as="geometry" />
        </mxCell>
        <mxCell id="EbdNjq6aExMKlVo5ueV2-34" value="item prescription&amp;nbsp;page" style="shape=umlLifeline;perimeter=lifelinePerimeter;whiteSpace=wrap;html=1;container=1;dropTarget=0;collapsible=0;recursiveResize=0;outlineConnect=0;portConstraint=eastwest;newEdgeStyle={&quot;curved&quot;:0,&quot;rounded&quot;:0};strokeColor=#0F8B8D;fontColor=#143642;fillColor=#FAE5C7;sketch=1;curveFitting=1;jiggle=2;labelBackgroundColor=none;" vertex="1" parent="1">
          <mxGeometry x="660" y="60" width="100" height="1157" as="geometry" />
        </mxCell>
        <mxCell id="EbdNjq6aExMKlVo5ueV2-35" value="" style="html=1;points=[[0,0,0,0,5],[0,1,0,0,-5],[1,0,0,0,5],[1,1,0,0,-5]];perimeter=orthogonalPerimeter;outlineConnect=0;targetShapes=umlLifeline;portConstraint=eastwest;newEdgeStyle={&quot;curved&quot;:0,&quot;rounded&quot;:0};strokeColor=#0F8B8D;fontColor=#143642;fillColor=#FAE5C7;sketch=1;curveFitting=1;jiggle=2;labelBackgroundColor=none;" vertex="1" parent="EbdNjq6aExMKlVo5ueV2-34">
          <mxGeometry x="45" y="343" width="10" height="411" as="geometry" />
        </mxCell>
        <mxCell id="EbdNjq6aExMKlVo5ueV2-37" style="edgeStyle=orthogonalEdgeStyle;rounded=0;orthogonalLoop=1;jettySize=auto;html=1;curved=0;exitX=1;exitY=1;exitDx=0;exitDy=-5;exitPerimeter=0;entryX=0;entryY=0;entryDx=0;entryDy=5;entryPerimeter=0;strokeColor=#A8201A;fontColor=default;fillColor=#FAE5C7;sketch=1;curveFitting=1;jiggle=2;labelBackgroundColor=none;dashed=1;dashPattern=8 8;" edge="1" parent="1">
          <mxGeometry relative="1" as="geometry">
            <mxPoint x="336" y="411" as="sourcePoint" />
            <mxPoint x="705" y="411" as="targetPoint" />
          </mxGeometry>
        </mxCell>
        <mxCell id="EbdNjq6aExMKlVo5ueV2-38" value="list of doctors for&amp;nbsp;&lt;span style=&quot;text-wrap-mode: wrap;&quot;&gt;specialty&lt;/span&gt;" style="text;html=1;align=center;verticalAlign=middle;resizable=0;points=[];autosize=1;strokeColor=none;fillColor=none;fontColor=#143642;sketch=1;curveFitting=1;jiggle=2;labelBackgroundColor=none;" vertex="1" parent="1">
          <mxGeometry x="522" y="389" width="156" height="26" as="geometry" />
        </mxCell>
        <mxCell id="EbdNjq6aExMKlVo5ueV2-39" style="edgeStyle=orthogonalEdgeStyle;rounded=0;hachureGap=4;orthogonalLoop=1;jettySize=auto;html=1;curved=0;exitX=0;exitY=1;exitDx=0;exitDy=-5;exitPerimeter=0;entryX=1;entryY=1;entryDx=0;entryDy=-5;entryPerimeter=0;strokeColor=#A8201A;fontFamily=Architects Daughter;fontSource=https%3A%2F%2Ffonts.googleapis.com%2Fcss%3Ffamily%3DArchitects%2BDaughter;fontColor=default;fillColor=#FAE5C7;sketch=1;curveFitting=1;jiggle=2;labelBackgroundColor=none;dashed=1;dashPattern=8 8;" edge="1" parent="1">
          <mxGeometry relative="1" as="geometry">
            <mxPoint x="705" y="499" as="sourcePoint" />
            <mxPoint x="-92" y="499" as="targetPoint" />
          </mxGeometry>
        </mxCell>
        <mxCell id="EbdNjq6aExMKlVo5ueV2-40" value="show list of doctor" style="text;html=1;align=center;verticalAlign=middle;resizable=0;points=[];autosize=1;strokeColor=none;fillColor=none;fontColor=#143642;sketch=1;curveFitting=1;jiggle=2;labelBackgroundColor=none;" vertex="1" parent="1">
          <mxGeometry x="283" y="476" width="114" height="26" as="geometry" />
        </mxCell>
        <mxCell id="EbdNjq6aExMKlVo5ueV2-41" value="&lt;font face=&quot;Helvetica&quot;&gt;order controller&lt;/font&gt;" style="shape=umlLifeline;perimeter=lifelinePerimeter;whiteSpace=wrap;html=1;container=1;dropTarget=0;collapsible=0;recursiveResize=0;outlineConnect=0;portConstraint=eastwest;newEdgeStyle={&quot;curved&quot;:0,&quot;rounded&quot;:0};hachureGap=4;strokeColor=#0F8B8D;fontFamily=Architects Daughter;fontSource=https%3A%2F%2Ffonts.googleapis.com%2Fcss%3Ffamily%3DArchitects%2BDaughter;fontColor=#143642;fillColor=#FAE5C7;sketch=1;curveFitting=1;jiggle=2;labelBackgroundColor=none;" vertex="1" parent="1">
          <mxGeometry x="837" y="60" width="100" height="950" as="geometry" />
        </mxCell>
        <mxCell id="EbdNjq6aExMKlVo5ueV2-42" value="" style="html=1;points=[[0,0,0,0,5],[0,1,0,0,-5],[1,0,0,0,5],[1,1,0,0,-5]];perimeter=orthogonalPerimeter;outlineConnect=0;targetShapes=umlLifeline;portConstraint=eastwest;newEdgeStyle={&quot;curved&quot;:0,&quot;rounded&quot;:0};sketch=1;hachureGap=4;jiggle=2;curveFitting=1;strokeColor=#0F8B8D;fontFamily=Architects Daughter;fontSource=https%3A%2F%2Ffonts.googleapis.com%2Fcss%3Ffamily%3DArchitects%2BDaughter;fontColor=#143642;fillColor=#FAE5C7;" vertex="1" parent="EbdNjq6aExMKlVo5ueV2-41">
          <mxGeometry x="45" y="483" width="10" height="377" as="geometry" />
        </mxCell>
        <mxCell id="EbdNjq6aExMKlVo5ueV2-43" style="edgeStyle=orthogonalEdgeStyle;rounded=0;sketch=1;hachureGap=4;jiggle=2;curveFitting=1;orthogonalLoop=1;jettySize=auto;html=1;curved=0;exitX=1;exitY=1;exitDx=0;exitDy=-5;exitPerimeter=0;entryX=0;entryY=1;entryDx=0;entryDy=-5;entryPerimeter=0;fontFamily=Architects Daughter;fontSource=https%3A%2F%2Ffonts.googleapis.com%2Fcss%3Ffamily%3DArchitects%2BDaughter;labelBackgroundColor=none;strokeColor=#A8201A;fontColor=default;" edge="1" parent="1">
          <mxGeometry relative="1" as="geometry">
            <mxPoint x="-92" y="536" as="sourcePoint" />
            <mxPoint x="705" y="536" as="targetPoint" />
          </mxGeometry>
        </mxCell>
        <mxCell id="EbdNjq6aExMKlVo5ueV2-44" value="order" style="text;html=1;align=center;verticalAlign=middle;resizable=0;points=[];autosize=1;strokeColor=none;fillColor=none;fontColor=#143642;sketch=1;curveFitting=1;jiggle=2;labelBackgroundColor=none;" vertex="1" parent="1">
          <mxGeometry x="315" y="510" width="46" height="26" as="geometry" />
        </mxCell>
        <mxCell id="EbdNjq6aExMKlVo5ueV2-45" style="edgeStyle=orthogonalEdgeStyle;rounded=0;sketch=1;hachureGap=4;jiggle=2;curveFitting=1;orthogonalLoop=1;jettySize=auto;html=1;curved=0;exitX=1;exitY=1;exitDx=0;exitDy=-5;exitPerimeter=0;entryX=0;entryY=1;entryDx=0;entryDy=-5;entryPerimeter=0;strokeColor=#A8201A;fontFamily=Architects Daughter;fontSource=https%3A%2F%2Ffonts.googleapis.com%2Fcss%3Ffamily%3DArchitects%2BDaughter;fontColor=#143642;fillColor=#FAE5C7;" edge="1" parent="1">
          <mxGeometry relative="1" as="geometry">
            <mxPoint x="715" y="554" as="sourcePoint" />
            <mxPoint x="882" y="554" as="targetPoint" />
          </mxGeometry>
        </mxCell>
        <mxCell id="EbdNjq6aExMKlVo5ueV2-46" value="order&amp;nbsp;&lt;span style=&quot;text-wrap-mode: wrap;&quot;&gt;prescription&lt;/span&gt;" style="text;html=1;align=center;verticalAlign=middle;resizable=0;points=[];autosize=1;strokeColor=none;fillColor=none;fontColor=#143642;sketch=1;curveFitting=1;jiggle=2;labelBackgroundColor=none;" vertex="1" parent="1">
          <mxGeometry x="744" y="529" width="111" height="26" as="geometry" />
        </mxCell>
        <mxCell id="EbdNjq6aExMKlVo5ueV2-47" style="edgeStyle=orthogonalEdgeStyle;rounded=0;sketch=1;hachureGap=4;jiggle=2;curveFitting=1;orthogonalLoop=1;jettySize=auto;html=1;curved=0;exitX=0;exitY=1;exitDx=0;exitDy=-5;exitPerimeter=0;entryX=1;entryY=0;entryDx=0;entryDy=5;entryPerimeter=0;strokeColor=#A8201A;fontFamily=Architects Daughter;fontSource=https%3A%2F%2Ffonts.googleapis.com%2Fcss%3Ffamily%3DArchitects%2BDaughter;fontColor=#143642;fillColor=#FAE5C7;" edge="1" parent="1">
          <mxGeometry relative="1" as="geometry">
            <mxPoint x="882" y="640" as="sourcePoint" />
            <mxPoint x="512" y="640" as="targetPoint" />
          </mxGeometry>
        </mxCell>
        <mxCell id="EbdNjq6aExMKlVo5ueV2-48" value="request where pharmacies" style="text;html=1;align=center;verticalAlign=middle;resizable=0;points=[];autosize=1;strokeColor=none;fillColor=none;fontColor=#143642;sketch=1;curveFitting=1;jiggle=2;labelBackgroundColor=none;" vertex="1" parent="1">
          <mxGeometry x="631.5" y="615" width="159" height="26" as="geometry" />
        </mxCell>
        <mxCell id="EbdNjq6aExMKlVo5ueV2-49" style="edgeStyle=orthogonalEdgeStyle;rounded=0;sketch=1;hachureGap=4;jiggle=2;curveFitting=1;orthogonalLoop=1;jettySize=auto;html=1;curved=0;exitX=1;exitY=1;exitDx=0;exitDy=-5;exitPerimeter=0;entryX=0;entryY=1;entryDx=0;entryDy=-5;entryPerimeter=0;strokeColor=#A8201A;fontFamily=Architects Daughter;fontSource=https%3A%2F%2Ffonts.googleapis.com%2Fcss%3Ffamily%3DArchitects%2BDaughter;fontColor=#143642;fillColor=#FAE5C7;dashed=1;dashPattern=8 8;" edge="1" parent="1">
          <mxGeometry relative="1" as="geometry">
            <mxPoint x="512" y="695" as="sourcePoint" />
            <mxPoint x="882" y="695" as="targetPoint" />
          </mxGeometry>
        </mxCell>
        <mxCell id="EbdNjq6aExMKlVo5ueV2-50" value="respons" style="text;html=1;align=center;verticalAlign=middle;resizable=0;points=[];autosize=1;strokeColor=none;fillColor=none;fontColor=#143642;sketch=1;curveFitting=1;jiggle=2;labelBackgroundColor=none;" vertex="1" parent="1">
          <mxGeometry x="679.5" y="675" width="61" height="26" as="geometry" />
        </mxCell>
        <mxCell id="EbdNjq6aExMKlVo5ueV2-51" style="edgeStyle=orthogonalEdgeStyle;rounded=0;sketch=1;hachureGap=4;jiggle=2;curveFitting=1;orthogonalLoop=1;jettySize=auto;html=1;curved=0;exitX=0;exitY=1;exitDx=0;exitDy=-5;exitPerimeter=0;strokeColor=#A8201A;fontFamily=Architects Daughter;fontSource=https%3A%2F%2Ffonts.googleapis.com%2Fcss%3Ffamily%3DArchitects%2BDaughter;fontColor=#143642;fillColor=#FAE5C7;dashed=1;dashPattern=8 8;entryX=0;entryY=0;entryDx=0;entryDy=5;entryPerimeter=0;" edge="1" parent="1">
          <mxGeometry relative="1" as="geometry">
            <mxPoint x="895" y="744" as="sourcePoint" />
            <mxPoint x="1119" y="744.5" as="targetPoint" />
          </mxGeometry>
        </mxCell>
        <mxCell id="EbdNjq6aExMKlVo5ueV2-52" value="send pharmacies" style="text;html=1;align=center;verticalAlign=middle;resizable=0;points=[];autosize=1;strokeColor=none;fillColor=none;fontColor=#143642;sketch=1;curveFitting=1;jiggle=2;labelBackgroundColor=none;" vertex="1" parent="1">
          <mxGeometry x="955" y="720" width="109" height="26" as="geometry" />
        </mxCell>
        <mxCell id="EbdNjq6aExMKlVo5ueV2-53" style="edgeStyle=orthogonalEdgeStyle;rounded=0;sketch=1;hachureGap=4;jiggle=2;curveFitting=1;orthogonalLoop=1;jettySize=auto;html=1;curved=0;exitX=0;exitY=1;exitDx=0;exitDy=-5;exitPerimeter=0;entryX=1;entryY=1;entryDx=0;entryDy=-5;entryPerimeter=0;strokeColor=#A8201A;fontFamily=Architects Daughter;fontSource=https%3A%2F%2Ffonts.googleapis.com%2Fcss%3Ffamily%3DArchitects%2BDaughter;fontColor=#143642;fillColor=#FAE5C7;" edge="1" parent="1">
          <mxGeometry relative="1" as="geometry">
            <mxPoint x="1119" y="761" as="sourcePoint" />
            <mxPoint x="-92" y="761" as="targetPoint" />
          </mxGeometry>
        </mxCell>
        <mxCell id="EbdNjq6aExMKlVo5ueV2-54" value="show pharmacies" style="text;html=1;align=center;verticalAlign=middle;resizable=0;points=[];autosize=1;strokeColor=none;fillColor=none;fontColor=#143642;sketch=1;curveFitting=1;jiggle=2;labelBackgroundColor=none;" vertex="1" parent="1">
          <mxGeometry x="257" y="735" width="111" height="26" as="geometry" />
        </mxCell>
        <mxCell id="EbdNjq6aExMKlVo5ueV2-55" style="edgeStyle=orthogonalEdgeStyle;rounded=0;sketch=1;hachureGap=4;jiggle=2;curveFitting=1;orthogonalLoop=1;jettySize=auto;html=1;curved=0;exitX=1;exitY=1;exitDx=0;exitDy=-5;exitPerimeter=0;entryX=0;entryY=1;entryDx=0;entryDy=-5;entryPerimeter=0;strokeColor=#A8201A;fontFamily=Architects Daughter;fontSource=https%3A%2F%2Ffonts.googleapis.com%2Fcss%3Ffamily%3DArchitects%2BDaughter;fontColor=#143642;fillColor=#FAE5C7;" edge="1" parent="1">
          <mxGeometry relative="1" as="geometry">
            <mxPoint x="-92" y="785.0000000000002" as="sourcePoint" />
            <mxPoint x="1119" y="786" as="targetPoint" />
          </mxGeometry>
        </mxCell>
        <mxCell id="EbdNjq6aExMKlVo5ueV2-56" value="select pharmacy" style="text;html=1;align=center;verticalAlign=middle;resizable=0;points=[];autosize=1;strokeColor=none;fillColor=none;fontColor=#143642;sketch=1;curveFitting=1;jiggle=2;labelBackgroundColor=none;" vertex="1" parent="1">
          <mxGeometry x="260" y="763" width="105" height="26" as="geometry" />
        </mxCell>
        <mxCell id="EbdNjq6aExMKlVo5ueV2-93" value="&lt;font face=&quot;Helvetica&quot;&gt;pharmacy page&lt;/font&gt;" style="shape=umlLifeline;perimeter=lifelinePerimeter;whiteSpace=wrap;html=1;container=1;dropTarget=0;collapsible=0;recursiveResize=0;outlineConnect=0;portConstraint=eastwest;newEdgeStyle={&quot;curved&quot;:0,&quot;rounded&quot;:0};hachureGap=4;strokeColor=#0F8B8D;fontFamily=Architects Daughter;fontSource=https%3A%2F%2Ffonts.googleapis.com%2Fcss%3Ffamily%3DArchitects%2BDaughter;fontColor=#143642;fillColor=#FAE5C7;sketch=1;curveFitting=1;jiggle=2;labelBackgroundColor=none;" vertex="1" parent="1">
          <mxGeometry x="1074" y="60" width="100" height="1098" as="geometry" />
        </mxCell>
        <mxCell id="EbdNjq6aExMKlVo5ueV2-97" value="" style="html=1;points=[[0,0,0,0,5],[0,1,0,0,-5],[1,0,0,0,5],[1,1,0,0,-5]];perimeter=orthogonalPerimeter;outlineConnect=0;targetShapes=umlLifeline;portConstraint=eastwest;newEdgeStyle={&quot;curved&quot;:0,&quot;rounded&quot;:0};sketch=1;hachureGap=4;jiggle=2;curveFitting=1;strokeColor=#0F8B8D;fontFamily=Architects Daughter;fontSource=https%3A%2F%2Ffonts.googleapis.com%2Fcss%3Ffamily%3DArchitects%2BDaughter;fontColor=#143642;fillColor=#FAE5C7;" vertex="1" parent="EbdNjq6aExMKlVo5ueV2-93">
          <mxGeometry x="45" y="676.5" width="10" height="66.5" as="geometry" />
        </mxCell>
        <mxCell id="EbdNjq6aExMKlVo5ueV2-99" value="&lt;font face=&quot;Helvetica&quot;&gt;order controller&lt;/font&gt;" style="shape=umlLifeline;perimeter=lifelinePerimeter;whiteSpace=wrap;html=1;container=1;dropTarget=0;collapsible=0;recursiveResize=0;outlineConnect=0;portConstraint=eastwest;newEdgeStyle={&quot;curved&quot;:0,&quot;rounded&quot;:0};hachureGap=4;strokeColor=#0F8B8D;fontFamily=Architects Daughter;fontSource=https%3A%2F%2Ffonts.googleapis.com%2Fcss%3Ffamily%3DArchitects%2BDaughter;fontColor=#143642;fillColor=#FAE5C7;sketch=1;curveFitting=1;jiggle=2;labelBackgroundColor=none;" vertex="1" parent="1">
          <mxGeometry x="1291" y="60" width="100" height="1098" as="geometry" />
        </mxCell>
        <mxCell id="EbdNjq6aExMKlVo5ueV2-100" value="" style="html=1;points=[[0,0,0,0,5],[0,1,0,0,-5],[1,0,0,0,5],[1,1,0,0,-5]];perimeter=orthogonalPerimeter;outlineConnect=0;targetShapes=umlLifeline;portConstraint=eastwest;newEdgeStyle={&quot;curved&quot;:0,&quot;rounded&quot;:0};sketch=1;hachureGap=4;jiggle=2;curveFitting=1;strokeColor=#0F8B8D;fontFamily=Architects Daughter;fontSource=https%3A%2F%2Ffonts.googleapis.com%2Fcss%3Ffamily%3DArchitects%2BDaughter;fontColor=#143642;fillColor=#FAE5C7;" vertex="1" parent="EbdNjq6aExMKlVo5ueV2-99">
          <mxGeometry x="45" y="733" width="10" height="116" as="geometry" />
        </mxCell>
        <mxCell id="EbdNjq6aExMKlVo5ueV2-101" style="edgeStyle=orthogonalEdgeStyle;rounded=0;sketch=1;hachureGap=4;jiggle=2;curveFitting=1;orthogonalLoop=1;jettySize=auto;html=1;curved=0;exitX=1;exitY=1;exitDx=0;exitDy=-5;exitPerimeter=0;entryX=0;entryY=0;entryDx=0;entryDy=5;entryPerimeter=0;strokeColor=#A8201A;fontFamily=Architects Daughter;fontSource=https%3A%2F%2Ffonts.googleapis.com%2Fcss%3Ffamily%3DArchitects%2BDaughter;fontColor=#143642;fillColor=#FAE5C7;" edge="1" parent="1">
          <mxGeometry relative="1" as="geometry">
            <mxPoint x="1129" y="799" as="sourcePoint" />
            <mxPoint x="1336" y="799" as="targetPoint" />
          </mxGeometry>
        </mxCell>
        <mxCell id="EbdNjq6aExMKlVo5ueV2-102" value="order pharmacy" style="text;html=1;align=center;verticalAlign=middle;resizable=0;points=[];autosize=1;strokeColor=none;fillColor=none;fontColor=#143642;sketch=1;curveFitting=1;jiggle=2;labelBackgroundColor=none;" vertex="1" parent="1">
          <mxGeometry x="1182" y="776" width="102" height="26" as="geometry" />
        </mxCell>
        <mxCell id="EbdNjq6aExMKlVo5ueV2-104" style="edgeStyle=orthogonalEdgeStyle;rounded=0;sketch=1;hachureGap=4;jiggle=2;curveFitting=1;orthogonalLoop=1;jettySize=auto;html=1;curved=0;exitX=0;exitY=1;exitDx=0;exitDy=-5;exitPerimeter=0;entryX=1;entryY=0;entryDx=0;entryDy=5;entryPerimeter=0;strokeColor=#A8201A;fontFamily=Architects Daughter;fontSource=https%3A%2F%2Ffonts.googleapis.com%2Fcss%3Ffamily%3DArchitects%2BDaughter;fontColor=#143642;fillColor=#FAE5C7;" edge="1" parent="1">
          <mxGeometry relative="1" as="geometry">
            <mxPoint x="1336" y="853.5" as="sourcePoint" />
            <mxPoint x="512" y="854" as="targetPoint" />
          </mxGeometry>
        </mxCell>
        <mxCell id="EbdNjq6aExMKlVo5ueV2-105" value="store pharmacy order" style="text;html=1;align=center;verticalAlign=middle;resizable=0;points=[];autosize=1;strokeColor=none;fillColor=none;fontColor=#143642;sketch=1;curveFitting=1;jiggle=2;labelBackgroundColor=none;" vertex="1" parent="1">
          <mxGeometry x="917" y="832" width="132" height="26" as="geometry" />
        </mxCell>
        <mxCell id="EbdNjq6aExMKlVo5ueV2-106" style="edgeStyle=orthogonalEdgeStyle;rounded=0;sketch=1;hachureGap=4;jiggle=2;curveFitting=1;orthogonalLoop=1;jettySize=auto;html=1;curved=0;exitX=1;exitY=1;exitDx=0;exitDy=-5;exitPerimeter=0;entryX=0;entryY=1;entryDx=0;entryDy=-5;entryPerimeter=0;strokeColor=#A8201A;fontFamily=Architects Daughter;fontSource=https%3A%2F%2Ffonts.googleapis.com%2Fcss%3Ffamily%3DArchitects%2BDaughter;fontColor=#143642;fillColor=#FAE5C7;dashed=1;dashPattern=8 8;" edge="1" parent="1">
          <mxGeometry relative="1" as="geometry">
            <mxPoint x="512" y="889" as="sourcePoint" />
            <mxPoint x="1336" y="889" as="targetPoint" />
          </mxGeometry>
        </mxCell>
        <mxCell id="EbdNjq6aExMKlVo5ueV2-107" value="response" style="text;html=1;align=center;verticalAlign=middle;resizable=0;points=[];autosize=1;strokeColor=none;fillColor=none;fontColor=#143642;sketch=1;curveFitting=1;jiggle=2;labelBackgroundColor=none;" vertex="1" parent="1">
          <mxGeometry x="950" y="867" width="67" height="26" as="geometry" />
        </mxCell>
        <mxCell id="EbdNjq6aExMKlVo5ueV2-109" value="&lt;font face=&quot;Helvetica&quot;&gt;order page&lt;/font&gt;" style="shape=umlLifeline;perimeter=lifelinePerimeter;whiteSpace=wrap;html=1;container=1;dropTarget=0;collapsible=0;recursiveResize=0;outlineConnect=0;portConstraint=eastwest;newEdgeStyle={&quot;curved&quot;:0,&quot;rounded&quot;:0};hachureGap=4;strokeColor=#0F8B8D;fontFamily=Architects Daughter;fontSource=https%3A%2F%2Ffonts.googleapis.com%2Fcss%3Ffamily%3DArchitects%2BDaughter;fontColor=#143642;fillColor=#FAE5C7;sketch=1;curveFitting=1;jiggle=2;labelBackgroundColor=none;" vertex="1" parent="1">
          <mxGeometry x="1474" y="60" width="100" height="1098" as="geometry" />
        </mxCell>
        <mxCell id="EbdNjq6aExMKlVo5ueV2-110" value="" style="html=1;points=[[0,0,0,0,5],[0,1,0,0,-5],[1,0,0,0,5],[1,1,0,0,-5]];perimeter=orthogonalPerimeter;outlineConnect=0;targetShapes=umlLifeline;portConstraint=eastwest;newEdgeStyle={&quot;curved&quot;:0,&quot;rounded&quot;:0};sketch=1;hachureGap=4;jiggle=2;curveFitting=1;strokeColor=#0F8B8D;fontFamily=Architects Daughter;fontSource=https%3A%2F%2Ffonts.googleapis.com%2Fcss%3Ffamily%3DArchitects%2BDaughter;fontColor=#143642;fillColor=#FAE5C7;" vertex="1" parent="EbdNjq6aExMKlVo5ueV2-109">
          <mxGeometry x="45" y="833" width="10" height="116" as="geometry" />
        </mxCell>
        <mxCell id="EbdNjq6aExMKlVo5ueV2-111" style="edgeStyle=orthogonalEdgeStyle;rounded=0;sketch=1;hachureGap=4;jiggle=2;curveFitting=1;orthogonalLoop=1;jettySize=auto;html=1;curved=0;exitX=1;exitY=1;exitDx=0;exitDy=-5;exitPerimeter=0;entryX=0;entryY=0;entryDx=0;entryDy=5;entryPerimeter=0;strokeColor=#A8201A;fontFamily=Architects Daughter;fontSource=https%3A%2F%2Ffonts.googleapis.com%2Fcss%3Ffamily%3DArchitects%2BDaughter;fontColor=#143642;fillColor=#FAE5C7;" edge="1" parent="1">
          <mxGeometry relative="1" as="geometry">
            <mxPoint x="1346" y="905" as="sourcePoint" />
            <mxPoint x="1519" y="905" as="targetPoint" />
          </mxGeometry>
        </mxCell>
        <mxCell id="EbdNjq6aExMKlVo5ueV2-112" value="send status order and details" style="text;html=1;align=center;verticalAlign=middle;resizable=0;points=[];autosize=1;strokeColor=none;fillColor=none;fontColor=#143642;sketch=1;curveFitting=1;jiggle=2;labelBackgroundColor=none;" vertex="1" parent="1">
          <mxGeometry x="1345" y="878" width="172" height="26" as="geometry" />
        </mxCell>
        <mxCell id="EbdNjq6aExMKlVo5ueV2-113" style="edgeStyle=orthogonalEdgeStyle;rounded=0;sketch=1;hachureGap=4;jiggle=2;curveFitting=1;orthogonalLoop=1;jettySize=auto;html=1;curved=0;exitX=0;exitY=1;exitDx=0;exitDy=-5;exitPerimeter=0;entryX=1;entryY=1;entryDx=0;entryDy=-5;entryPerimeter=0;strokeColor=#A8201A;fontFamily=Architects Daughter;fontSource=https%3A%2F%2Ffonts.googleapis.com%2Fcss%3Ffamily%3DArchitects%2BDaughter;fontColor=#143642;fillColor=#FAE5C7;dashed=1;dashPattern=8 8;" edge="1" parent="1">
          <mxGeometry relative="1" as="geometry">
            <mxPoint x="1519" y="965" as="sourcePoint" />
            <mxPoint x="-92" y="965" as="targetPoint" />
          </mxGeometry>
        </mxCell>
        <mxCell id="EbdNjq6aExMKlVo5ueV2-114" value="show status order and details" style="text;html=1;align=center;verticalAlign=middle;resizable=0;points=[];autosize=1;strokeColor=none;fillColor=none;fontColor=#143642;sketch=1;curveFitting=1;jiggle=2;labelBackgroundColor=none;" vertex="1" parent="1">
          <mxGeometry x="624" y="942" width="174" height="26" as="geometry" />
        </mxCell>
      </root>
    </mxGraphModel>
  </diagram>
</mxfile>
